<svg xmlns="http://www.w3.org/2000/svg" viewBox="0 0 292.5 70.6"><title>streamer</title><path d="M73.9,36c0-11.2,3.8-20.5,12.1-29.5l3.7,3c-7,8.6-10,16.5-10,26.5s3,17.9,10,26.5l-3.7,3C77.7,56.5,73.9,47.2,73.9,36Z" style="fill:#939393"/><path d="M151.8,62.5c7-8.6,10-16.5,10-26.5s-3-17.9-10-26.5l3.7-3c8.3,9,12.1,18.4,12.1,29.5s-3.8,20.5-12.1,29.5Z" style="fill:#939393"/><path d="M185.8,24.7h25.9V29H185.8V24.7Zm0,11.2h25.9v4.4H185.8V35.9Z" style="fill:#939393"/><rect x="78.7" y="26.5" width="57.7" height="2.99" transform="translate(29.5 107.2) rotate(-60)" style="fill:#e535ab"/><rect x="91.2" y="48.3" width="57.7" height="2.99" style="fill:#e535ab"/><rect x="106.1" y="40.3" width="3" height="33.33" transform="translate(4.4 121.6) rotate(-60)" style="fill:#e535ab"/><rect x="131.1" y="-3.1" width="3" height="33.33" transform="translate(54.6 121.6) rotate(-60)" style="fill:#e535ab"/><rect x="90.9" y="12.1" width="33.3" height="2.99" transform="translate(7.6 55.6) rotate(-30)" style="fill:#e535ab"/><rect x="131.2" y="-0.8" width="3" height="57.71" transform="translate(3.8 70.1) rotate(-30)" style="fill:#e535ab"/><rect x="93.5" y="18.6" width="3" height="33.33" style="fill:#e535ab"/><rect x="143.7" y="18.6" width="3" height="33.33" style="fill:#e535ab"/><rect x="118.1" y="55.7" width="29" height="2.61" transform="translate(-10.7 74) rotate(-30)" style="fill:#e535ab"/><path d="M150.6,52.9a6.3,6.3,0,1,1-2.3-8.6,6.3,6.3,0,0,1,2.3,8.6" style="fill:#e535ab"/><path d="M100.4,23.9a6.3,6.3,0,1,1-2.3-8.6,6.3,6.3,0,0,1,2.3,8.6" style="fill:#e535ab"/><path d="M89.6,52.9a6.3,6.3,0,1,1,8.6,2.3,6.3,6.3,0,0,1-8.6-2.3" style="fill:#e535ab"/><path d="M139.8,23.9a6.3,6.3,0,1,1,8.6,2.3,6.3,6.3,0,0,1-8.6-2.3" style="fill:#e535ab"/><path d="M120.1,70.6a6.3,6.3,0,1,1,6.3-6.3,6.3,6.3,0,0,1-6.3,6.3" style="fill:#e535ab"/><path d="M120.1,12.6a6.3,6.3,0,1,1,6.3-6.3,6.3,6.3,0,0,1-6.3,6.3" style="fill:#e535ab"/><rect x="-3.2" y="27.9" width="62" height="14.83" rx="7.4" ry="7.4" transform="translate(63.1 7.5) rotate(90)" style="fill:#9082ff"/><rect y="3.6" width="55.7" height="14.83" rx="7.4" ry="7.4" style="fill:#9082ff"/><rect x="219.7" y="26.5" width="57.7" height="2.99" transform="translate(100 229.3) rotate(-60)" style="fill:#37e28c"/><rect x="232.2" y="48.3" width="57.7" height="2.99" style="fill:#37e28c"/><rect x="247.1" y="40.3" width="3" height="33.33" transform="translate(74.9 243.8) rotate(-60)" style="fill:#37e28c"/><rect x="272.1" y="-3.1" width="3" height="33.33" transform="translate(125.1 243.8) rotate(-60)" style="fill:#37e28c"/><rect x="231.9" y="12.1" width="33.3" height="2.99" transform="translate(26.5 126.1) rotate(-30)" style="fill:#37e28c"/><rect x="272.2" y="-0.8" width="3" height="57.71" transform="translate(22.6 140.6) rotate(-30)" style="fill:#37e28c"/><rect x="234.5" y="18.6" width="3" height="33.33" style="fill:#37e28c"/><rect x="284.7" y="18.6" width="3" height="33.33" style="fill:#37e28c"/><rect x="259.1" y="55.7" width="29" height="2.61" transform="translate(8.2 144.5) rotate(-30)" style="fill:#37e28c"/><path d="M291.6,52.9a6.3,6.3,0,1,1-2.3-8.6,6.3,6.3,0,0,1,2.3,8.6" style="fill:#37e28c"/><path d="M241.4,23.9a6.3,6.3,0,1,1-2.3-8.6,6.3,6.3,0,0,1,2.3,8.6" style="fill:#37e28c"/><path d="M230.6,52.9a6.3,6.3,0,1,1,8.6,2.3,6.3,6.3,0,0,1-8.6-2.3" style="fill:#37e28c"/><path d="M280.8,23.9a6.3,6.3,0,1,1,8.6,2.3,6.3,6.3,0,0,1-8.6-2.3" style="fill:#37e28c"/><path d="M261.1,70.6a6.3,6.3,0,1,1,6.3-6.3,6.3,6.3,0,0,1-6.3,6.3" style="fill:#37e28c"/><path d="M261.1,12.6a6.3,6.3,0,1,1,6.3-6.3,6.3,6.3,0,0,1-6.3,6.3" style="fill:#37e28c"/></svg>